<?xml version="1.0" encoding="utf-8"?>
<!-- Generator: Adobe Illustrator 16.0.0, SVG Export Plug-In . SVG Version: 6.00 Build 0)  -->
<!DOCTYPE svg PUBLIC "-//W3C//DTD SVG 1.1//EN" "http://www.w3.org/Graphics/SVG/1.1/DTD/svg11.dtd">
<svg version="1.1" id="Layer_1" xmlns="http://www.w3.org/2000/svg" xmlns:xlink="http://www.w3.org/1999/xlink" x="0px" y="0px"
	 width="72.176px" height="128px" viewBox="0 0 72.176 128" enable-background="new 0 0 72.176 128" xml:space="preserve">
<g id="Layer_2">
</g>
<g id="Layer_1_1_">
	<path fill="#FFFFFF" d="M28.312,87.493c1.866,0,3.442-0.292,4.724-0.874c1.282-0.584,2.304-1.604,3.062-3.062
		c0.757-1.457,1.282-3.47,1.572-6.033c0.295-2.566,0.439-5.83,0.439-9.797c0-3.964-0.146-7.229-0.439-9.793
		c-0.29-2.566-0.814-4.579-1.572-6.036c-0.758-1.457-1.779-2.479-3.062-3.061c-1.281-0.583-2.857-0.875-4.724-0.875
		c-1.632,0-3.032,0.292-4.196,0.875c-1.167,0.582-2.187,1.604-3.062,3.061c-0.874,1.457-1.516,3.47-1.924,6.036
		c-0.408,2.564-0.612,5.83-0.612,9.793c0,3.967,0.204,7.229,0.612,9.797c0.408,2.563,1.05,4.576,1.924,6.033
		c0.876,1.459,1.896,2.479,3.062,3.062C25.28,87.201,26.681,87.493,28.312,87.493z M41.742,19.521h21.796v23.27H52.359l3.24,8.144
		c0.701,2.449,1.225,5.044,1.574,7.785c0.352,2.739,0.524,5.101,0.524,7.083c0,7.229-0.611,13.236-1.837,18.016
		c-1.223,4.783-3.061,8.658-5.51,11.634c-2.447,2.974-5.539,5.071-9.271,6.296c-3.731,1.227-8.104,1.838-13.118,1.838h-6.298
		c-1.049,0.232-1.954,0.729-2.712,1.484c-0.758,0.759-1.137,1.723-1.137,2.889c0,2.098,1.252,3.469,3.76,4.107
		c2.509,0.644,5.628,1.052,9.358,1.229c3.73,0.173,7.755,0.348,12.07,0.523c4.312,0.174,8.338,0.933,12.069,2.272
		c3.731,1.341,6.852,3.47,9.358,6.386c1.312,1.525,2.282,3.404,2.907,5.635c0,0-58.212,0.041-57.746-0.069v-0.667
		c-2.682-1.051-4.839-2.537-6.473-4.46c-1.632-1.927-2.45-4.403-2.45-7.437c0-1.633,0.38-3.205,1.139-4.723
		c0.757-1.515,1.721-2.915,2.885-4.197c1.168-1.285,2.451-2.479,3.851-3.586c1.397-1.107,2.739-2.013,4.023-2.711
		c-2.451-1.75-4.489-3.441-6.122-5.072c-1.634-1.633-2.916-3.672-3.849-6.123c-0.935-2.447-1.604-5.451-2.012-9.008
		c-0.409-3.558-0.613-8.074-0.613-13.557c0-6.414,0.554-11.835,1.662-16.267c1.109-4.432,2.887-8.017,5.335-10.758
		c2.448-2.74,5.599-4.694,9.445-5.86c3.849-1.166,8.513-1.748,13.994-1.748c4.049,0,7.824,0.732,11.33,2.195V19.521H41.742z
		 M29.239,7.782h12.377v11.744H29.239V7.782z M60.855,0h11.319v10.699H60.855V0z"/>
</g>
</svg>
