<?xml version="1.0" encoding="utf-8"?>
<!-- Generator: Adobe Illustrator 16.0.0, SVG Export Plug-In . SVG Version: 6.00 Build 0)  -->
<!DOCTYPE svg PUBLIC "-//W3C//DTD SVG 1.1//EN" "http://www.w3.org/Graphics/SVG/1.1/DTD/svg11.dtd">
<svg version="1.1" id="Layer_1" xmlns="http://www.w3.org/2000/svg" xmlns:xlink="http://www.w3.org/1999/xlink" x="0px" y="0px"
	 width="72.176px" height="128px" viewBox="0 0 72.176 128" enable-background="new 0 0 72.176 128" xml:space="preserve">
<g id="Layer_2">
</g>
<g id="Layer_1_1_">
	<path d="M28.312,87.493c1.866,0,3.442-0.292,4.724-0.874c1.282-0.584,2.304-1.604,3.062-3.062c0.757-1.457,1.282-3.47,1.572-6.033
		c0.295-2.565,0.439-5.83,0.439-9.797c0-3.963-0.146-7.229-0.439-9.792c-0.29-2.566-0.814-4.579-1.572-6.036
		c-0.758-1.457-1.779-2.479-3.062-3.061c-1.281-0.583-2.857-0.875-4.724-0.875c-1.632,0-3.032,0.292-4.196,0.875
		c-1.167,0.582-2.187,1.604-3.062,3.061c-0.874,1.457-1.516,3.47-1.924,6.036c-0.408,2.564-0.612,5.83-0.612,9.792
		c0,3.967,0.204,7.229,0.612,9.797c0.408,2.563,1.05,4.576,1.924,6.033c0.876,1.459,1.896,2.479,3.062,3.062
		C25.28,87.201,26.681,87.493,28.312,87.493z M41.742,19.521h21.796v23.27H52.359l3.24,8.144c0.7,2.449,1.225,5.044,1.573,7.785
		c0.353,2.739,0.524,5.101,0.524,7.083c0,7.229-0.611,13.236-1.838,18.016c-1.223,4.783-3.061,8.658-5.51,11.635
		c-2.447,2.974-5.539,5.07-9.271,6.296c-3.731,1.228-8.104,1.838-13.118,1.838h-6.298c-1.049,0.231-1.954,0.729-2.712,1.483
		c-0.758,0.76-1.137,1.724-1.137,2.89c0,2.099,1.252,3.47,3.76,4.106c2.509,0.645,5.628,1.053,9.358,1.229
		c3.73,0.173,7.755,0.349,12.07,0.522c4.312,0.175,8.338,0.934,12.068,2.272c3.731,1.341,6.853,3.47,9.359,6.386
		c1.312,1.525,2.281,3.404,2.906,5.635c0,0-58.212,0.041-57.746-0.068v-0.667c-2.682-1.051-4.839-2.537-6.473-4.46
		c-1.632-1.927-2.45-4.402-2.45-7.438c0-1.633,0.38-3.205,1.139-4.723c0.757-1.515,1.721-2.915,2.885-4.197
		c1.168-1.285,2.451-2.479,3.851-3.586c1.397-1.106,2.739-2.013,4.023-2.711c-2.451-1.75-4.489-3.441-6.122-5.072
		c-1.634-1.633-2.916-3.672-3.849-6.123c-0.935-2.446-1.604-5.45-2.012-9.008c-0.409-3.558-0.613-8.074-0.613-13.557
		c0-6.414,0.554-11.835,1.662-16.267c1.109-4.432,2.887-8.017,5.335-10.758c2.448-2.74,5.599-4.694,9.445-5.86
		c3.849-1.166,8.513-1.748,13.994-1.748c4.049,0,7.824,0.732,11.33,2.195V19.521H41.742z M29.239,7.782h12.377v11.744H29.239V7.782z
		 M60.855,0h11.318v10.699H60.855V0z"/>
</g>
</svg>
