<?xml version="1.0" encoding="utf-8"?>
<!-- Generator: Adobe Illustrator 16.0.0, SVG Export Plug-In . SVG Version: 6.00 Build 0)  -->
<!DOCTYPE svg PUBLIC "-//W3C//DTD SVG 1.1//EN" "http://www.w3.org/Graphics/SVG/1.1/DTD/svg11.dtd">
<svg version="1.1" id="Layer_1" xmlns="http://www.w3.org/2000/svg" xmlns:xlink="http://www.w3.org/1999/xlink" x="0px" y="0px"
	 width="9.021px" height="16px" viewBox="0 0 9.021 16" enable-background="new 0 0 9.021 16" xml:space="preserve">
<g id="Layer_2">
</g>
<g id="Layer_1_1_">
	<path d="M3.542,10.927c0.233,0,0.431-0.036,0.59-0.108c0.159-0.073,0.287-0.2,0.383-0.383c0.095-0.182,0.159-0.434,0.195-0.752
		c0.037-0.322,0.057-0.729,0.057-1.225c0-0.495-0.02-0.903-0.057-1.223c-0.036-0.32-0.102-0.572-0.195-0.754
		C4.419,6.3,4.291,6.172,4.132,6.1c-0.159-0.074-0.356-0.11-0.59-0.11c-0.204,0-0.379,0.037-0.523,0.109
		c-0.146,0.072-0.274,0.2-0.384,0.382C2.526,6.663,2.447,6.915,2.395,7.235c-0.051,0.32-0.076,0.728-0.076,1.223
		c0,0.496,0.025,0.903,0.076,1.224c0.052,0.32,0.131,0.571,0.239,0.754c0.109,0.182,0.237,0.31,0.384,0.381
		C3.163,10.891,3.338,10.927,3.542,10.927z M5.219,2.438H7.94v2.906H6.545l0.404,1.017c0.088,0.306,0.152,0.63,0.197,0.973
		C7.189,7.675,7.212,7.97,7.212,8.218c0,0.903-0.077,1.653-0.229,2.25C6.83,11.064,6.6,11.549,6.294,11.92
		c-0.306,0.371-0.69,0.635-1.156,0.786c-0.468,0.153-1.014,0.229-1.64,0.229H2.711c-0.131,0.028-0.243,0.09-0.338,0.186
		C2.278,13.215,2.23,13.336,2.23,13.48c0,0.263,0.156,0.434,0.47,0.514c0.313,0.081,0.703,0.131,1.169,0.154
		c0.466,0.021,0.969,0.043,1.508,0.064c0.538,0.021,1.041,0.117,1.507,0.284c0.467,0.167,0.856,0.433,1.17,0.797
		c0.163,0.19,0.284,0.425,0.362,0.704c0,0-7.27,0.005-7.211-0.008v-0.083c-0.336-0.132-0.604-0.317-0.809-0.558
		c-0.204-0.24-0.307-0.55-0.307-0.929c0-0.204,0.048-0.399,0.144-0.589c0.094-0.189,0.215-0.364,0.359-0.523
		c0.146-0.16,0.307-0.311,0.48-0.449c0.175-0.139,0.342-0.25,0.503-0.338c-0.307-0.219-0.561-0.43-0.765-0.633
		c-0.204-0.205-0.364-0.459-0.481-0.766c-0.116-0.307-0.2-0.682-0.251-1.125S0.003,8.99,0.003,8.305
		c0-0.801,0.069-1.478,0.208-2.032C0.35,5.72,0.57,5.272,0.877,4.93c0.306-0.342,0.699-0.586,1.181-0.732
		C2.537,4.053,3.119,3.98,3.804,3.98c0.506,0,0.978,0.091,1.415,0.274V2.438z M3.657,0.972h1.546v1.467H3.657V0.972z M7.605,0H9.02
		v1.336H7.605V0z"/>
</g>
</svg>
