<?xml version="1.0" encoding="utf-8"?>
<!-- Generator: Adobe Illustrator 16.0.0, SVG Export Plug-In . SVG Version: 6.00 Build 0)  -->
<!DOCTYPE svg PUBLIC "-//W3C//DTD SVG 1.1//EN" "http://www.w3.org/Graphics/SVG/1.1/DTD/svg11.dtd">
<svg version="1.1" id="Layer_1" xmlns="http://www.w3.org/2000/svg" xmlns:xlink="http://www.w3.org/1999/xlink" x="0px" y="0px"
	 width="13.531px" height="24px" viewBox="0 0 13.531 24" enable-background="new 0 0 13.531 24" xml:space="preserve">
<g id="Layer_2">
</g>
<g id="Layer_1_1_">
	<path fill="#FFFFFF" d="M5.288,16.443c0.353,0,0.646-0.057,0.889-0.166c0.239-0.108,0.433-0.301,0.574-0.574
		c0.144-0.273,0.24-0.652,0.295-1.135c0.057-0.481,0.084-1.096,0.084-1.84c0-0.746-0.027-1.358-0.084-1.84
		c-0.055-0.482-0.151-0.86-0.295-1.135C6.608,9.479,6.416,9.287,6.177,9.178C5.935,9.068,5.64,9.014,5.288,9.014
		c-0.307,0-0.568,0.055-0.789,0.164C4.28,9.287,4.088,9.479,3.923,9.752c-0.164,0.274-0.282,0.653-0.36,1.135
		c-0.076,0.482-0.114,1.095-0.114,1.839c0,0.746,0.038,1.359,0.114,1.842c0.078,0.481,0.196,0.859,0.36,1.134
		c0.165,0.272,0.357,0.466,0.576,0.575C4.719,16.387,4.981,16.443,5.288,16.443z M7.812,3.669h4.097v4.373H9.808l0.606,1.531
		c0.132,0.46,0.23,0.948,0.298,1.463c0.064,0.514,0.1,0.958,0.1,1.331c0,1.359-0.117,2.488-0.347,3.386
		c-0.229,0.897-0.575,1.626-1.035,2.187c-0.459,0.558-1.04,0.953-1.741,1.183c-0.702,0.231-1.524,0.345-2.467,0.345H4.037
		c-0.196,0.044-0.365,0.137-0.508,0.28c-0.143,0.142-0.215,0.323-0.215,0.542c0,0.395,0.234,0.652,0.707,0.771
		c0.473,0.121,1.059,0.197,1.76,0.23c0.7,0.032,1.457,0.064,2.269,0.098c0.811,0.033,1.566,0.176,2.269,0.428
		c0.7,0.252,1.289,0.652,1.759,1.201c0.247,0.287,0.43,0.64,0.547,1.059c0,0-10.938,0.007-10.851-0.012v-0.127
		c-0.506-0.197-0.91-0.477-1.217-0.838c-0.309-0.361-0.462-0.826-0.462-1.396c0-0.307,0.07-0.602,0.215-0.887
		c0.141-0.285,0.322-0.549,0.542-0.791c0.22-0.24,0.46-0.465,0.723-0.672c0.264-0.209,0.515-0.379,0.757-0.511
		c-0.461-0.329-0.844-0.647-1.149-0.954c-0.309-0.307-0.549-0.688-0.726-1.15c-0.175-0.459-0.301-1.024-0.377-1.692
		s-0.115-1.517-0.115-2.547c0-1.206,0.104-2.224,0.313-3.058c0.208-0.833,0.54-1.506,1.002-2.021
		C1.736,6.904,2.33,6.537,3.053,6.318c0.724-0.219,1.599-0.329,2.63-0.329c0.761,0,1.471,0.137,2.129,0.412V3.669z M5.463,1.462
		h2.325v2.207H5.463V1.462z M11.403,0h2.128v2.011h-2.128V0z"/>
</g>
</svg>
