<?xml version="1.0" encoding="utf-8"?>
<!-- Generator: Adobe Illustrator 16.0.0, SVG Export Plug-In . SVG Version: 6.00 Build 0)  -->
<!DOCTYPE svg PUBLIC "-//W3C//DTD SVG 1.1//EN" "http://www.w3.org/Graphics/SVG/1.1/DTD/svg11.dtd">
<svg version="1.1" id="Layer_1" xmlns="http://www.w3.org/2000/svg" xmlns:xlink="http://www.w3.org/1999/xlink" x="0px" y="0px"
	 width="13.531px" height="24px" viewBox="0 0 13.531 24" enable-background="new 0 0 13.531 24" xml:space="preserve">
<g id="Layer_2">
</g>
<g id="Layer_1_1_">
	<path d="M5.288,16.443c0.353,0,0.646-0.058,0.889-0.166c0.239-0.108,0.433-0.301,0.574-0.574c0.144-0.273,0.24-0.652,0.295-1.135
		c0.057-0.481,0.084-1.096,0.084-1.84c0-0.747-0.027-1.358-0.084-1.84c-0.055-0.482-0.151-0.86-0.295-1.135
		C6.608,9.479,6.416,9.287,6.177,9.178C5.935,9.068,5.64,9.014,5.288,9.014c-0.307,0-0.568,0.055-0.789,0.164
		C4.28,9.287,4.088,9.479,3.923,9.752c-0.164,0.274-0.282,0.653-0.36,1.135c-0.076,0.482-0.114,1.095-0.114,1.839
		c0,0.746,0.038,1.358,0.114,1.842c0.078,0.48,0.196,0.858,0.36,1.134c0.165,0.272,0.357,0.466,0.576,0.575
		C4.719,16.387,4.981,16.443,5.288,16.443z M7.812,3.669h4.097v4.373H9.809l0.605,1.531c0.132,0.46,0.23,0.948,0.298,1.463
		c0.063,0.514,0.101,0.958,0.101,1.331c0,1.359-0.117,2.488-0.348,3.386c-0.229,0.897-0.574,1.626-1.035,2.187
		c-0.459,0.559-1.039,0.953-1.74,1.184c-0.703,0.23-1.524,0.345-2.467,0.345H4.037c-0.196,0.044-0.365,0.138-0.508,0.28
		S3.314,20.07,3.314,20.29c0,0.396,0.234,0.651,0.707,0.771c0.473,0.121,1.059,0.197,1.76,0.23c0.7,0.032,1.457,0.064,2.269,0.098
		c0.812,0.033,1.566,0.176,2.269,0.428c0.701,0.252,1.289,0.652,1.76,1.201c0.247,0.287,0.43,0.641,0.547,1.06
		c0,0-10.938,0.007-10.851-0.013v-0.127c-0.506-0.196-0.91-0.477-1.217-0.838c-0.309-0.36-0.462-0.826-0.462-1.396
		c0-0.308,0.07-0.603,0.215-0.888c0.141-0.284,0.322-0.549,0.542-0.791c0.22-0.239,0.46-0.465,0.723-0.672
		c0.264-0.209,0.515-0.379,0.757-0.511c-0.461-0.329-0.844-0.647-1.149-0.954c-0.309-0.307-0.549-0.688-0.726-1.149
		c-0.175-0.46-0.301-1.024-0.377-1.692s-0.115-1.518-0.115-2.547c0-1.206,0.104-2.224,0.313-3.058
		c0.208-0.833,0.54-1.506,1.002-2.021c0.456-0.517,1.05-0.884,1.773-1.103c0.724-0.219,1.599-0.329,2.63-0.329
		c0.761,0,1.471,0.137,2.129,0.412V3.669z M5.463,1.462h2.325v2.207H5.463V1.462z M11.402,0h2.129v2.011h-2.129V0z"/>
</g>
</svg>
